<svg width="73" height="31" viewBox="0 0 73 31" fill="none" xmlns="http://www.w3.org/2000/svg">
<path d="M4.77927 15.942C4.77927 18.5753 5.83781 19.892 7.95481 19.892C8.43729 19.892 8.88787 19.8288 9.30697 19.7024C9.72606 19.576 10.0826 19.4285 10.3762 19.26V11.7391C10.1456 11.697 9.87285 11.6654 9.55843 11.6443C9.244 11.6022 8.87724 11.5811 8.45814 11.5811C7.22129 11.5811 6.29899 11.9919 5.69111 12.8135C5.08319 13.6351 4.77927 14.6779 4.77927 15.942ZM15.0611 22.7044C15.0611 25.4221 14.3693 27.434 12.9856 28.7401C11.6233 30.0673 9.50609 30.7309 6.63439 30.7309C5.62822 30.7309 4.62206 30.6361 3.6159 30.4465C2.60974 30.278 1.67693 30.0462 0.817508 29.7513L1.63501 25.8013C2.36866 26.0962 3.13375 26.328 3.93032 26.4965C4.74783 26.665 5.67013 26.7493 6.69727 26.7493C8.03863 26.7493 8.98191 26.4544 9.52694 25.8645C10.0932 25.2746 10.3762 24.5162 10.3762 23.5892V22.9888C9.87285 23.2206 9.34908 23.3996 8.80405 23.526C8.27987 23.6314 7.70335 23.684 7.07458 23.684C4.78974 23.684 3.03942 23.0099 1.82367 21.6616C0.607876 20.2923 0 18.3857 0 15.942C0 14.7201 0.188655 13.614 0.565966 12.6239C0.943277 11.6127 1.48827 10.749 2.20098 10.0327C2.93463 9.3164 3.82549 8.76867 4.8736 8.38947C5.92168 7.98918 7.10598 7.78906 8.42665 7.78906C8.99254 7.78906 9.56906 7.82066 10.1558 7.88386C10.7638 7.92598 11.3612 7.98918 11.9483 8.07347C12.535 8.15775 13.0907 8.26307 13.6145 8.38947C14.1595 8.49479 14.6416 8.61067 15.0611 8.73707V22.7044Z" fill="white"/>
<path d="M21.6953 21.4076C22.5547 21.4076 23.1627 21.3233 23.5189 21.1548C23.8754 20.9862 24.0537 20.6597 24.0537 20.1752C24.0537 19.7959 23.8231 19.4694 23.3619 19.1955C22.9007 18.9006 22.1986 18.5741 21.2553 18.2159C20.5214 17.942 19.8508 17.6576 19.2428 17.3627C18.6561 17.0678 18.1528 16.7202 17.7337 16.3199C17.3146 15.8986 16.9895 15.4035 16.7589 14.8347C16.5283 14.2659 16.413 13.5812 16.413 12.7807C16.413 11.2217 16.9895 9.98932 18.1426 9.08343C19.2952 8.17753 20.8779 7.72461 22.89 7.72461C23.8963 7.72461 24.8608 7.81941 25.7828 8.00901C26.7053 8.17753 27.4388 8.36714 27.9838 8.57782L27.1665 12.2435C26.6214 12.0539 26.0241 11.8853 25.3744 11.7379C24.7455 11.5904 24.0324 11.5167 23.2359 11.5167C21.7689 11.5167 21.035 11.9275 21.035 12.7491C21.035 12.9387 21.0664 13.1072 21.1294 13.2547C21.1924 13.4022 21.3179 13.5496 21.5068 13.6971C21.6953 13.8235 21.9468 13.971 22.2612 14.1395C22.5969 14.287 23.016 14.4555 23.5189 14.6451C24.5464 15.0243 25.3952 15.4035 26.0658 15.7827C26.7367 16.1408 27.2609 16.5411 27.6379 16.9835C28.0361 17.4048 28.3089 17.8788 28.4557 18.4055C28.6233 18.9322 28.7071 19.5431 28.7071 20.2383C28.7071 21.8816 28.0889 23.1245 26.852 23.9672C25.636 24.8099 23.9069 25.2312 21.6638 25.2312C20.1968 25.2312 18.9705 25.1048 17.9851 24.852C17.021 24.5992 16.35 24.3885 15.9727 24.22L16.7589 20.3964C17.5554 20.7124 18.3728 20.9652 19.2114 21.1548C20.05 21.3233 20.8779 21.4076 21.6953 21.4076Z" fill="white"/>
<path d="M45.7795 16.4463C45.7795 17.7524 45.5906 18.9533 45.2133 20.0487C44.8363 21.1232 44.2912 22.0501 43.5786 22.8296C42.8659 23.588 42.0064 24.1779 41.0002 24.5992C40.0148 25.0205 38.9039 25.2312 37.667 25.2312C36.4514 25.2312 35.3405 25.0205 34.3343 24.5992C33.3489 24.1779 32.5001 23.588 31.7874 22.8296C31.0747 22.0501 30.5191 21.1232 30.1208 20.0487C29.7226 18.9533 29.5234 17.7524 29.5234 16.4463C29.5234 15.1402 29.7226 13.9499 30.1208 12.8755C30.5403 11.8011 31.1062 10.8846 31.8189 10.1262C32.5524 9.36783 33.4119 8.77794 34.3972 8.35662C35.4035 7.93529 36.4931 7.72461 37.667 7.72461C38.8622 7.72461 39.9518 7.93529 40.9372 8.35662C41.9435 8.77794 42.8029 9.36783 43.5156 10.1262C44.2283 10.8846 44.7835 11.8011 45.1818 12.8755C45.5804 13.9499 45.7795 15.1402 45.7795 16.4463ZM41.0002 16.4463C41.0002 14.9927 40.7066 13.8551 40.1199 13.0335C39.5536 12.1908 38.7362 11.7695 37.667 11.7695C36.5982 11.7695 35.7703 12.1908 35.1831 13.0335C34.5964 13.8551 34.3028 14.9927 34.3028 16.4463C34.3028 17.8999 34.5964 19.0586 35.1831 19.9223C35.7703 20.765 36.5982 21.1864 37.667 21.1864C38.7362 21.1864 39.5536 20.765 40.1199 19.9223C40.7066 19.0586 41.0002 17.8999 41.0002 16.4463Z" fill="white"/>
<path d="M53.8602 0.267578C54.7409 0.267578 55.5477 0.362379 56.2816 0.551982C57.0151 0.720503 57.581 0.889066 57.9793 1.05759L57.0675 4.81803C56.6484 4.62843 56.1872 4.49151 55.6842 4.40723C55.2022 4.3019 54.7512 4.24922 54.3321 4.24922C53.7662 4.24922 53.2841 4.33351 52.8859 4.50203C52.5085 4.64951 52.2043 4.86015 51.9737 5.13403C51.7643 5.40792 51.6069 5.73444 51.5022 6.11365C51.4184 6.49285 51.3763 6.90365 51.3763 7.34606V8.16767H57.1619V12.0861H51.3763V24.7895H46.6914V7.28286C46.6914 5.13403 47.2888 3.42761 48.4839 2.1636C49.6995 0.899585 51.4916 0.267578 53.8602 0.267578Z" fill="white"/>
<path d="M58.2305 4.02794L62.9154 3.26953V8.16759H68.5436V12.086H62.9154V17.9321C62.9154 18.9222 63.083 19.7122 63.4187 20.3021C63.7748 20.892 64.4773 21.1869 65.5252 21.1869C66.0281 21.1869 66.5417 21.1448 67.0659 21.0605C67.6109 20.9552 68.1036 20.8182 68.5436 20.6497L69.2039 24.3154C68.638 24.5471 68.0092 24.7473 67.3173 24.9158C66.6255 25.0843 65.7767 25.1686 64.7704 25.1686C63.4919 25.1686 62.4333 25.0001 61.5947 24.663C60.7565 24.3049 60.0855 23.8203 59.5826 23.2094C59.0793 22.5774 58.7232 21.8189 58.5134 20.9341C58.3249 20.0493 58.2305 19.0697 58.2305 17.9953V4.02794Z" fill="white"/>
<path d="M71.4969 25.4017C70.6668 25.4017 69.9922 24.7154 69.9922 23.8689C69.9922 23.0224 70.6668 22.332 71.4969 22.332C72.3269 22.332 72.9974 23.0224 72.9974 23.8689C72.9974 24.7154 72.3228 25.4017 71.4969 25.4017ZM71.4969 22.6197C70.8263 22.6197 70.2784 23.1785 70.2784 23.8689C70.2784 24.5593 70.8263 25.1181 71.4969 25.1181C72.1674 25.114 72.7112 24.5551 72.7112 23.8689C72.7112 23.1827 72.1674 22.6197 71.4969 22.6197Z" fill="white"/>
<path d="M71.4521 23.7345C71.5175 23.7387 71.5829 23.7222 71.6361 23.6852C71.677 23.6441 71.6974 23.5866 71.6933 23.525C71.6974 23.4674 71.677 23.4099 71.6361 23.3688C71.5993 23.3359 71.5379 23.3236 71.4521 23.3236H71.2763V23.7387H71.4521M71.2763 24.0222V24.6304H70.8633V23.0195H71.493C71.7056 23.0195 71.8568 23.0565 71.955 23.1264C72.0531 23.1962 72.1022 23.3113 72.1022 23.4633C72.1063 23.5578 72.0777 23.6483 72.0245 23.7263C71.9632 23.8003 71.8855 23.8537 71.7914 23.8784C71.8487 23.8948 71.9018 23.9236 71.9427 23.9688C72 24.0304 72.0449 24.1003 72.0776 24.1783L72.3025 24.6345H71.8732L71.677 24.2359C71.6524 24.1742 71.6115 24.1167 71.5584 24.0715C71.5093 24.0386 71.4521 24.0222 71.3948 24.0263L71.2763 24.0222Z" fill="white"/>
</svg>
